<svg xmlns="http://www.w3.org/2000/svg" viewBox="0 0 30 30" fill="none">
  <!-- Simple student character avatar -->
  <!-- Head -->
  <circle cx="15" cy="10" r="7" fill="#FBBF24"/>
  <!-- Hair -->
  <path d="M8 8 C8 4, 12 2, 15 2 C18 2, 22 4, 22 8" fill="#92400E"/>
  <!-- Eyes -->
  <circle cx="12" cy="10" r="1.2" fill="#1F2937"/>
  <circle cx="18" cy="10" r="1.2" fill="#1F2937"/>
  <!-- Smile -->
  <path d="M12 13 C13 15, 17 15, 18 13" stroke="#1F2937" stroke-width="1" fill="none" stroke-linecap="round"/>
  <!-- Body -->
  <path d="M9 17 L9 26 L21 26 L21 17 C21 17, 18 20, 15 20 C12 20, 9 17, 9 17Z" fill="#3B82F6"/>
  <!-- Arms -->
  <path d="M9 18 L5 22" stroke="#FBBF24" stroke-width="2.5" stroke-linecap="round"/>
  <path d="M21 18 L25 22" stroke="#FBBF24" stroke-width="2.5" stroke-linecap="round"/>
  <!-- Book in hand -->
  <rect x="23" y="20" width="5" height="4" rx="0.5" fill="#10B981"/>
  <line x1="25.5" y1="20" x2="25.5" y2="24" stroke="#059669" stroke-width="0.5"/>
</svg>