<svg xmlns="http://www.w3.org/2000/svg" viewBox="0 0 40 40" fill="none">
  <!-- Treasure chest -->
  <!-- Chest body -->
  <rect x="5" y="18" width="30" height="18" rx="2" fill="#92400E"/>
  <rect x="5" y="18" width="30" height="9" rx="2" fill="#B45309"/>
  <!-- Chest lid (curved top) -->
  <path d="M5 18 C5 10, 35 10, 35 18" fill="#D97706"/>
  <path d="M5 18 C5 12, 35 12, 35 18" fill="#B45309" opacity="0.5"/>
  <!-- Metal bands -->
  <rect x="3" y="16" width="34" height="3" rx="1" fill="#78350F"/>
  <rect x="3" y="28" width="34" height="2" rx="1" fill="#78350F"/>
  <!-- Lock/clasp -->
  <circle cx="20" cy="22" r="3" fill="#FBBF24"/>
  <circle cx="20" cy="22" r="1.5" fill="#92400E"/>
  <!-- Gold coins peeking out -->
  <circle cx="12" cy="15" r="2.5" fill="#FBBF24"/>
  <circle cx="18" cy="13" r="2" fill="#F59E0B"/>
  <circle cx="25" cy="14" r="2.5" fill="#FBBF24"/>
  <circle cx="30" cy="16" r="2" fill="#FDE68A"/>
  <!-- Sparkle -->
  <path d="M15 10 L15 8 M14 9 L16 9" stroke="#FBBF24" stroke-width="1" stroke-linecap="round"/>
  <path d="M28 9 L28 7 M27 8 L29 8" stroke="#FBBF24" stroke-width="1" stroke-linecap="round"/>
</svg>