<svg xmlns="http://www.w3.org/2000/svg" viewBox="0 0 400 300" fill="none">
  <!-- Consonants Island: Elongated ocean island with lighthouse area -->
  <!-- Sand/beach -->
  <path d="M50 160 C40 120, 80 80, 140 75 C200 70, 260 65, 320 80 C380 95, 390 140, 370 180 C350 220, 290 250, 220 255 C150 260, 80 240, 50 200 C35 180, 50 160, 50 160Z" fill="#FDE68A" opacity="0.6"/>
  <!-- Main body -->
  <path d="M60 158 C52 125, 90 90, 145 85 C200 80, 255 76, 312 88 C369 100, 378 140, 360 175 C342 210, 285 238, 218 244 C151 250, 85 232, 60 198 C48 180, 60 158, 60 158Z" fill="#DBEAFE"/>
  <!-- Vegetation -->
  <path d="M80 155 C72 128, 105 100, 155 95 C205 90, 250 87, 300 97 C350 107, 358 138, 342 168 C326 198, 275 222, 215 228 C155 234, 95 218, 80 190 C70 175, 80 155, 80 155Z" fill="#3B82F6" opacity="0.6"/>
  <!-- Rocky areas -->
  <ellipse cx="160" cy="145" rx="35" ry="22" fill="#1D4ED8" opacity="0.3"/>
  <ellipse cx="280" cy="150" rx="28" ry="18" fill="#1D4ED8" opacity="0.25"/>
  <!-- Harbor area -->
  <path d="M330 170 L350 160 L355 180 L335 185Z" fill="#93C5FD" opacity="0.5"/>
</svg>